<svg width="20" height="15" viewBox="0 0 20 15" fill="none" xmlns="http://www.w3.org/2000/svg">
<path d="M18.75 0H1.25C0.918479 0 0.600537 0.131696 0.366116 0.366116C0.131696 0.600537 0 0.918479 0 1.25V13.75C0 14.0815 0.131696 14.3995 0.366116 14.6339C0.600537 14.8683 0.918479 15 1.25 15H18.75C19.0815 15 19.3995 14.8683 19.6339 14.6339C19.8683 14.3995 20 14.0815 20 13.75V1.25C20 0.918479 19.8683 0.600537 19.6339 0.366116C19.3995 0.131696 19.0815 0 18.75 0ZM10.625 10H4.375C4.20924 10 4.05027 9.93415 3.93306 9.81694C3.81585 9.69973 3.75 9.54076 3.75 9.375C3.75 9.20924 3.81585 9.05027 3.93306 8.93306C4.05027 8.81585 4.20924 8.75 4.375 8.75H10.625C10.7908 8.75 10.9497 8.81585 11.0669 8.93306C11.1842 9.05027 11.25 9.20924 11.25 9.375C11.25 9.54076 11.1842 9.69973 11.0669 9.81694C10.9497 9.93415 10.7908 10 10.625 10ZM15.625 7.5H4.375C4.20924 7.5 4.05027 7.43415 3.93306 7.31694C3.81585 7.19973 3.75 7.04076 3.75 6.875C3.75 6.70924 3.81585 6.55027 3.93306 6.43306C4.05027 6.31585 4.20924 6.25 4.375 6.25H15.625C15.7908 6.25 15.9497 6.31585 16.0669 6.43306C16.1842 6.55027 16.25 6.70924 16.25 6.875C16.25 7.04076 16.1842 7.19973 16.0669 7.31694C15.9497 7.43415 15.7908 7.5 15.625 7.5ZM15.625 5H4.375C4.20924 5 4.05027 4.93415 3.93306 4.81694C3.81585 4.69973 3.75 4.54076 3.75 4.375C3.75 4.20924 3.81585 4.05027 3.93306 3.93306C4.05027 3.81585 4.20924 3.75 4.375 3.75H15.625C15.7908 3.75 15.9497 3.81585 16.0669 3.93306C16.1842 4.05027 16.25 4.20924 16.25 4.375C16.25 4.54076 16.1842 4.69973 16.0669 4.81694C15.9497 4.93415 15.7908 5 15.625 5Z" fill="black"/>
</svg>
