<svg width="20" height="18" viewBox="0 0 20 18" fill="none" xmlns="http://www.w3.org/2000/svg">
<path d="M11.4286 0C9.15529 0 6.97511 0.948211 5.36766 2.63604C3.7602 4.32386 2.85714 6.61305 2.85714 9H0L3.70476 12.89L3.77143 13.03L7.61905 9H4.7619C4.7619 5.13 7.74286 2 11.4286 2C15.1143 2 18.0952 5.13 18.0952 9C18.0952 12.87 15.1143 16 11.4286 16C9.59048 16 7.92381 15.21 6.72381 13.94L5.37143 15.36C6.16516 16.198 7.10904 16.8627 8.14863 17.3158C9.18823 17.7689 10.303 18.0015 11.4286 18C13.7019 18 15.882 17.0518 17.4895 15.364C19.0969 13.6761 20 11.3869 20 9C20 6.61305 19.0969 4.32386 17.4895 2.63604C15.882 0.948211 13.7019 3.55683e-08 11.4286 0ZM10.4762 5V10L14.5238 12.52L15.2571 11.24L11.9048 9.15V5H10.4762Z" fill="black"/>
</svg>
