<svg width="20" height="20" viewBox="0 0 20 20" fill="none" xmlns="http://www.w3.org/2000/svg">
<mask id="mask0_622_9" style="mask-type:luminance" maskUnits="userSpaceOnUse" x="0" y="3" width="20" height="14">
<path d="M10 15.6998C15.2468 15.6998 19.5 9.9998 19.5 9.9998C19.5 9.9998 15.2468 4.2998 10 4.2998C4.75315 4.2998 0.5 9.9998 0.5 9.9998C0.5 9.9998 4.75315 15.6998 10 15.6998Z" fill="white" stroke="white" stroke-linejoin="round"/>
<path d="M10 12.375C10.6299 12.375 11.234 12.1248 11.6794 11.6794C12.1248 11.234 12.375 10.6299 12.375 10C12.375 9.37011 12.1248 8.76602 11.6794 8.32062C11.234 7.87522 10.6299 7.625 10 7.625C9.37011 7.625 8.76602 7.87522 8.32062 8.32062C7.87522 8.76602 7.625 9.37011 7.625 10C7.625 10.6299 7.87522 11.234 8.32062 11.6794C8.76602 12.1248 9.37011 12.375 10 12.375Z" fill="black" stroke="black" stroke-linejoin="round"/>
</mask>
<g mask="url(#mask0_622_9)">
<path d="M0 0H20V20H0V0Z" fill="black"/>
</g>
<line x1="1.26756" y1="18.7794" x2="18.3946" y2="1.69054" stroke="black" stroke-width="2"/>
</svg>
