<svg width="20" height="20" viewBox="0 0 20 20" fill="none" xmlns="http://www.w3.org/2000/svg">
<path d="M2.01875 20C1.44375 20 0.96375 19.8075 0.57875 19.4225C0.192916 19.0367 0 18.5562 0 17.9813V2.01875C0 1.44375 0.192916 0.96375 0.57875 0.57875C0.96375 0.192916 1.44375 0 2.01875 0H17.9813C18.5562 0 19.0363 0.192916 19.4213 0.57875C19.8071 0.96375 20 1.44375 20 2.01875V17.9813C20 18.5562 19.8075 19.0363 19.4225 19.4213C19.0367 19.8071 18.5562 20 17.9813 20H2.01875ZM4.375 15.625H15.8175L12.2837 10.9125L9.015 15.0475L6.8275 12.4038L4.375 15.625ZM5.625 6.875C5.96917 6.875 6.26375 6.75292 6.50875 6.50875C6.75292 6.26375 6.875 5.96917 6.875 5.625C6.875 5.28083 6.75292 4.98625 6.50875 4.74125C6.26375 4.49708 5.96917 4.375 5.625 4.375C5.28083 4.375 4.98625 4.49708 4.74125 4.74125C4.49708 4.98625 4.375 5.28083 4.375 5.625C4.375 5.96917 4.49708 6.26375 4.74125 6.50875C4.98625 6.75292 5.28083 6.875 5.625 6.875Z" fill="black"/>
</svg>
