<svg width="20" height="15" viewBox="0 0 20 15" fill="none" xmlns="http://www.w3.org/2000/svg">
<path fill-rule="evenodd" clip-rule="evenodd" d="M0 2C0 1.46957 0.210714 0.960859 0.585786 0.585787C0.960859 0.210714 1.46957 0 2 0H18C18.5304 0 19.0391 0.210714 19.4142 0.585787C19.7893 0.960859 20 1.46957 20 2V12.6667C20 13.1971 19.7893 13.7058 19.4142 14.0809C19.0391 14.456 18.5304 14.6667 18 14.6667H2C1.46957 14.6667 0.960859 14.456 0.585786 14.0809C0.210714 13.7058 0 13.1971 0 12.6667L0 2ZM5.33333 2.66667H2.66667V5.33333H4V4H5.33333V2.66667ZM16 4H14.6667V2.66667H17.3333V5.33333H16V4ZM10 4C9.11594 4 8.2681 4.35119 7.64298 4.97631C7.01786 5.60143 6.66667 6.44928 6.66667 7.33333C6.66667 8.21739 7.01786 9.06524 7.64298 9.69036C8.2681 10.3155 9.11594 10.6667 10 10.6667C10.8841 10.6667 11.7319 10.3155 12.357 9.69036C12.9821 9.06524 13.3333 8.21739 13.3333 7.33333C13.3333 6.44928 12.9821 5.60143 12.357 4.97631C11.7319 4.35119 10.8841 4 10 4ZM14.6667 10.6667V12H17.3333V9.33333H16V10.6667H14.6667ZM2.66667 9.33333H4V10.6667H5.33333V12H2.66667V9.33333Z" fill="black"/>
</svg>
