<svg width="20" height="20" viewBox="0 0 20 20" fill="none" xmlns="http://www.w3.org/2000/svg">
<path d="M9.81243 0.506902C9.87686 0.332778 10.1231 0.332777 10.1876 0.506901L12.669 7.21284C12.6892 7.26759 12.7324 7.31075 12.7872 7.33101L19.4931 9.81243C19.6672 9.87686 19.6672 10.1231 19.4931 10.1876L12.7872 12.669C12.7324 12.6892 12.6893 12.7324 12.669 12.7872L10.1876 19.4931C10.1231 19.6672 9.87686 19.6672 9.81243 19.4931L7.33101 12.7872C7.31075 12.7324 7.26759 12.6893 7.21284 12.669L0.506902 10.1876C0.332778 10.1231 0.332777 9.87686 0.506901 9.81243L7.21284 7.33101C7.26759 7.31075 7.31075 7.26759 7.33101 7.21284L9.81243 0.506902Z" fill="black"/>
</svg>
